<svg width="45" height="32" viewBox="0 0 45 32" fill="none" xmlns="http://www.w3.org/2000/svg">
<path fill-rule="evenodd" clip-rule="evenodd" d="M0 2C0 0.89543 0.89543 0 2 0L43 0C44.1046 0 45 0.89543 45 2C45 3.10457 44.1046 4 43 4L2 4C0.89543 4 0 3.10457 0 2Z" fill="#1E1E1E"/>
<path fill-rule="evenodd" clip-rule="evenodd" d="M0 16C0 14.8954 0.822334 14 1.83673 14H43.1633C44.1777 14 45 14.8954 45 16C45 17.1046 44.1777 18 43.1633 18H1.83673C0.822334 18 0 17.1046 0 16Z" fill="#1E1E1E"/>
<path fill-rule="evenodd" clip-rule="evenodd" d="M0 30C0 28.8954 0.89543 28 2 28L43 28C44.1046 28 45 28.8954 45 30C45 31.1046 44.1046 32 43 32L2 32C0.89543 32 0 31.1046 0 30Z" fill="#1E1E1E"/>
</svg>
