<svg width="128" height="128" viewBox="0 0 128 128" fill="none" xmlns="http://www.w3.org/2000/svg">
<rect width="128" height="128" rx="64" fill="#4ECDC4"/>
<path d="M70.3627 25.1216H102.194L102.556 99.0189L97.4915 96.4707L94.236 98.6548L90.2571 96.4707L86.64 98.2908L82.2994 96.4707L78.6822 97.9268L74.3416 96.1067L70.3627 99.0189V25.1216Z" fill="#EDEDED"/>
<rect x="24" y="19" width="46.0657" height="89.25" rx="8" fill="#FFE66D" stroke="#1E1E1E" stroke-width="2"/>
<path d="M35.5758 19H34.5758V20C34.5758 21.5258 35.8127 22.7626 37.3384 22.7626H57.6086C59.1344 22.7626 60.3713 21.5258 60.3713 20H59.3713V19H35.5758Z" fill="white" stroke="#1E1E1E" stroke-width="2"/>
<path d="M35.5758 48.2019L39.9824 71.9974" stroke="#1E1E1E" stroke-width="2" stroke-linecap="round"/>
<path d="M59.9588 71.9973H39.9824" stroke="#1E1E1E" stroke-width="2" stroke-linecap="round"/>
<path d="M35.249 48.2019L29.4066 48.4787" stroke="#1E1E1E" stroke-width="2" stroke-linecap="round"/>
<circle cx="60.5463" cy="75.8163" r="3.70034" fill="white" stroke="#1E1E1E" stroke-width="2"/>
<circle cx="38.5135" cy="75.8163" r="3.70034" fill="white" stroke="#1E1E1E" stroke-width="2"/>
<path d="M37.3384 51.6086H36.1186L36.3579 52.8048L39.0018 66.0245L39.1816 66.9235L40.0928 66.8222L59.6709 64.6468C61.0539 64.4931 62.1497 63.4087 62.3177 62.0274L63.1759 54.9709C63.3933 53.1835 61.9984 51.6086 60.1979 51.6086H37.3384Z" fill="white" stroke="#1E1E1E" stroke-width="2"/>
<path d="M70.3627 25.1216L102.556 25.1216" stroke="#1E1E1E" stroke-width="2" stroke-linecap="round" stroke-dasharray="4 4"/>
<path d="M102.556 25.1216V98.2872" stroke="black" stroke-width="2" stroke-linecap="round"/>
<path d="M98.149 95.793L102.556 98.4369" stroke="black" stroke-width="2" stroke-linecap="round"/>
<path d="M90.2172 95.793L94.6238 98.4369" stroke="black" stroke-width="2" stroke-linecap="round"/>
<path d="M82.2854 95.793L86.6919 98.4369" stroke="black" stroke-width="2" stroke-linecap="round"/>
<path d="M74.3535 95.793L78.7601 98.4369" stroke="black" stroke-width="2" stroke-linecap="round"/>
<path d="M98.149 95.793L94.6237 98.4369" stroke="black" stroke-width="2" stroke-linecap="round"/>
<path d="M90.2172 95.793L86.6919 98.4369" stroke="black" stroke-width="2" stroke-linecap="round"/>
<path d="M82.2854 95.793L78.7601 98.4369" stroke="black" stroke-width="2" stroke-linecap="round"/>
<path d="M74.3535 95.793L70.8283 98.4369" stroke="black" stroke-width="2" stroke-linecap="round"/>
<path d="M84.0296 68.2023C81.8323 68.2023 80.0723 67.6903 78.7496 66.6663C77.4269 65.6423 76.5203 64.2983 76.0296 62.6343H74.1096C73.8963 62.6343 73.7043 62.5596 73.5336 62.4103C73.3843 62.2396 73.3096 62.0476 73.3096 61.8343C73.3096 61.5996 73.3843 61.4076 73.5336 61.2583C73.7043 61.109 73.8963 61.0343 74.1096 61.0343H75.7096C75.6456 60.5223 75.6136 59.9996 75.6136 59.4663C75.6136 59.1676 75.6243 58.8903 75.6456 58.6343C75.6669 58.357 75.6989 58.0903 75.7416 57.8343H74.1096C73.8963 57.8343 73.7043 57.7596 73.5336 57.6103C73.3843 57.4396 73.3096 57.2476 73.3096 57.0343C73.3096 56.7996 73.3843 56.6076 73.5336 56.4583C73.7043 56.309 73.8963 56.2343 74.1096 56.2343H76.0936C76.6483 54.4636 77.6189 53.0663 79.0056 52.0423C80.3923 51.0183 82.0136 50.5063 83.8696 50.5063C84.7443 50.5063 85.5763 50.6023 86.3656 50.7943C87.1763 50.9863 87.8483 51.2316 88.3816 51.5303C88.6376 51.6796 88.7656 51.925 88.7656 52.2663C88.7656 52.4583 88.6803 52.6396 88.5096 52.8103C88.3389 52.9596 88.1469 53.0343 87.9336 53.0343C87.8056 53.0343 87.6776 53.0023 87.5496 52.9383C87.1016 52.661 86.5576 52.4583 85.9176 52.3303C85.2776 52.181 84.5949 52.1063 83.8696 52.1063C82.4403 52.1063 81.1923 52.4796 80.1256 53.2263C79.0589 53.9516 78.2803 54.9543 77.7896 56.2343H85.2456C85.4803 56.2343 85.6723 56.309 85.8216 56.4583C85.9709 56.6076 86.0456 56.7996 86.0456 57.0343C86.0456 57.2476 85.9709 57.4396 85.8216 57.6103C85.6723 57.7596 85.4803 57.8343 85.2456 57.8343H77.3416C77.2989 58.0903 77.2669 58.357 77.2456 58.6343C77.2243 58.8903 77.2136 59.1676 77.2136 59.4663C77.2136 59.7436 77.2243 60.0103 77.2456 60.2663C77.2669 60.5223 77.2989 60.7783 77.3416 61.0343H85.2456C85.4803 61.0343 85.6723 61.109 85.8216 61.2583C85.9709 61.4076 86.0456 61.5996 86.0456 61.8343C86.0456 62.0476 85.9709 62.2396 85.8216 62.4103C85.6723 62.5596 85.4803 62.6343 85.2456 62.6343H77.7576C78.2056 63.8076 78.9416 64.7676 79.9656 65.5143C81.0109 66.2396 82.3656 66.6023 84.0296 66.6023C85.4376 66.6023 86.6643 66.3143 87.7096 65.7383C87.8376 65.6743 87.9656 65.6423 88.0936 65.6423C88.3069 65.6423 88.4883 65.7276 88.6376 65.8983C88.8083 66.069 88.8936 66.2503 88.8936 66.4423C88.8936 66.741 88.7549 66.9756 88.4776 67.1463C87.2403 67.8503 85.7576 68.2023 84.0296 68.2023Z" fill="#1E1E1E"/>
<path d="M74.3535 33.2197H94.6237" stroke="#1E1E1E" stroke-width="2" stroke-linecap="round"/>
<path d="M74.3535 37.6265H87.5732" stroke="#1E1E1E" stroke-width="2" stroke-linecap="round"/>
<path d="M88.4545 42.033H93.7424" stroke="#1E1E1E" stroke-width="2" stroke-linecap="round"/>
<path d="M74.3535 42.033H84.9293" stroke="#1E1E1E" stroke-width="2" stroke-linecap="round"/>
<path d="M74.3535 75.5227H91.0985" stroke="#1E1E1E" stroke-width="2" stroke-linecap="round"/>
<path d="M74.3535 79.9292H83.1666" stroke="#1E1E1E" stroke-width="2" stroke-linecap="round"/>
<path d="M86.6919 79.9292H95.5051" stroke="#1E1E1E" stroke-width="2" stroke-linecap="round"/>
</svg>
