<svg width="128" height="128" viewBox="0 0 128 128" fill="none" xmlns="http://www.w3.org/2000/svg">
    <g clip-path="url(#clip0_1143_2)">
        <rect width="128" height="128" fill="white" />
        <rect width="128" height="128" rx="32" fill="#FFE66D" />
        <path
            d="M87.9108 35.992V84.664C87.9108 87.672 87.3988 90.392 86.3748 92.824C85.3508 95.192 83.8788 97.208 81.9588 98.872C80.1028 100.536 77.8308 101.848 75.1428 102.808C72.5188 103.704 69.5748 104.152 66.3108 104.152C59.9748 104.152 54.9828 102.552 51.3348 99.352C47.7508 96.152 45.4468 91.896 44.4228 86.584L56.2308 84.088C56.8068 86.904 57.8308 89.24 59.3028 91.096C60.8388 92.888 63.1748 93.784 66.3108 93.784C69.1908 93.784 71.3988 92.952 72.9348 91.288C74.4708 89.56 75.2388 86.872 75.2388 83.224V46.36H52.5828V35.992H87.9108Z"
            fill="#1E1E1E" />
        <mask id="path-3-outside-1_1143_2" maskUnits="userSpaceOnUse" x="31" y="24" width="53"
            height="78" fill="black">
            <rect fill="white" x="31" y="24" width="53" height="78" />
            <path
                d="M79.9108 28.992V77.664C79.9108 80.672 79.3988 83.392 78.3748 85.824C77.3508 88.192 75.8788 90.208 73.9588 91.872C72.1028 93.536 69.8308 94.848 67.1428 95.808C64.5188 96.704 61.5748 97.152 58.3108 97.152C51.9748 97.152 46.9828 95.552 43.3348 92.352C39.7508 89.152 37.4468 84.896 36.4228 79.584L48.2308 77.088C48.8068 79.904 49.8308 82.24 51.3028 84.096C52.8388 85.888 55.1748 86.784 58.3108 86.784C61.1908 86.784 63.3988 85.952 64.9348 84.288C66.4708 82.56 67.2388 79.872 67.2388 76.224V39.36H44.5828V28.992H79.9108Z" />
        </mask>
        <path
            d="M79.9108 28.992V77.664C79.9108 80.672 79.3988 83.392 78.3748 85.824C77.3508 88.192 75.8788 90.208 73.9588 91.872C72.1028 93.536 69.8308 94.848 67.1428 95.808C64.5188 96.704 61.5748 97.152 58.3108 97.152C51.9748 97.152 46.9828 95.552 43.3348 92.352C39.7508 89.152 37.4468 84.896 36.4228 79.584L48.2308 77.088C48.8068 79.904 49.8308 82.24 51.3028 84.096C52.8388 85.888 55.1748 86.784 58.3108 86.784C61.1908 86.784 63.3988 85.952 64.9348 84.288C66.4708 82.56 67.2388 79.872 67.2388 76.224V39.36H44.5828V28.992H79.9108Z"
            fill="white" />
        <path
            d="M79.9108 28.992H83.9108V24.992H79.9108V28.992ZM78.3748 85.824L82.0462 87.4116L82.0538 87.394L82.0613 87.3762L78.3748 85.824ZM73.9588 91.872L71.339 88.8492L71.3136 88.8713L71.2886 88.8937L73.9588 91.872ZM67.1428 95.808L68.4353 99.5934L68.4618 99.5844L68.4881 99.575L67.1428 95.808ZM43.3348 92.352L40.6707 95.3358L40.6838 95.3475L40.697 95.359L43.3348 92.352ZM36.4228 79.584L35.5955 75.6705L31.7513 76.4831L32.4951 80.3411L36.4228 79.584ZM48.2308 77.088L52.1496 76.2864L51.3428 72.3418L47.4035 73.1745L48.2308 77.088ZM51.3028 84.096L48.1688 86.5816L48.2161 86.6413L48.2657 86.6992L51.3028 84.096ZM64.9348 84.288L67.874 87.0011L67.8994 86.9735L67.9244 86.9455L64.9348 84.288ZM67.2388 39.36H71.2388V35.36H67.2388V39.36ZM44.5828 39.36H40.5828V43.36H44.5828V39.36ZM44.5828 28.992V24.992H40.5828V28.992H44.5828ZM75.9108 28.992V77.664H83.9108V28.992H75.9108ZM75.9108 77.664C75.9108 80.2131 75.4784 82.3952 74.6882 84.2718L82.0613 87.3762C83.3191 84.3888 83.9108 81.1309 83.9108 77.664H75.9108ZM74.7033 84.2364C73.9139 86.0619 72.798 87.5848 71.339 88.8492L76.5785 94.8948C78.9595 92.8312 80.7876 90.3221 82.0462 87.4116L74.7033 84.2364ZM71.2886 88.8937C69.8708 90.1648 68.0671 91.2304 65.7974 92.041L68.4881 99.575C71.5944 98.4656 74.3347 96.9072 76.6289 94.8503L71.2886 88.8937ZM65.8502 92.0226C63.7086 92.7539 61.211 93.152 58.3108 93.152V101.152C61.9385 101.152 65.3289 100.654 68.4353 99.5934L65.8502 92.0226ZM58.3108 93.152C52.6425 93.152 48.6914 91.73 45.9725 89.345L40.697 95.359C45.2741 99.374 51.307 101.152 58.3108 101.152V93.152ZM45.9988 89.3682C43.1501 86.8248 41.2305 83.3921 40.3504 78.8269L32.4951 80.3411C33.663 86.3999 36.3514 91.4792 40.6707 95.3358L45.9988 89.3682ZM37.25 83.4975L49.058 81.0015L47.4035 73.1745L35.5955 75.6705L37.25 83.4975ZM44.3119 77.8896C44.9872 81.1912 46.232 84.1395 48.1688 86.5816L54.4367 81.6104C53.4295 80.3405 52.6263 78.6168 52.1496 76.2864L44.3119 77.8896ZM48.2657 86.6992C50.7917 89.6461 54.4142 90.784 58.3108 90.784V82.784C55.9353 82.784 54.8858 82.1299 54.3398 81.4928L48.2657 86.6992ZM58.3108 90.784C61.9844 90.784 65.3865 89.6958 67.874 87.0011L61.9955 81.5749C61.411 82.2082 60.3971 82.784 58.3108 82.784V90.784ZM67.9244 86.9455C70.3971 84.1636 71.2388 80.3129 71.2388 76.224H63.2388C63.2388 79.4311 62.5444 80.9564 61.9451 81.6305L67.9244 86.9455ZM71.2388 76.224V39.36H63.2388V76.224H71.2388ZM67.2388 35.36H44.5828V43.36H67.2388V35.36ZM48.5828 39.36V28.992H40.5828V39.36H48.5828ZM44.5828 32.992H79.9108V24.992H44.5828V32.992Z"
            fill="#1E1E1E" mask="url(#path-3-outside-1_1143_2)" />
    </g>
    <defs>
        <clipPath id="clip0_1143_2">
            <rect width="128" height="128" fill="white" />
        </clipPath>
    </defs>
</svg>
    